<?xml version="1.0" encoding="utf-8"?>
<!-- Generator: Adobe Illustrator 16.0.0, SVG Export Plug-In . SVG Version: 6.00 Build 0)  -->
<!DOCTYPE svg PUBLIC "-//W3C//DTD SVG 1.1//EN" "http://www.w3.org/Graphics/SVG/1.1/DTD/svg11.dtd">
<svg version="1.1" id="Layer_1" xmlns="http://www.w3.org/2000/svg" xmlns:xlink="http://www.w3.org/1999/xlink" x="0px" y="0px"
	 width="100px" height="100px" viewBox="0 0 100 100" enable-background="new 0 0 100 100" xml:space="preserve">
<g>
	<path fill="#2E3192" d="M70.948,46.752v6.88h7.611v-7.685h5.945v11.929H52.443v-11.54h5.946v7.295h6.659v-6.88H70.948z"/>
	<path fill="#2E3192" d="M84.505,43.064H52.443v-4.938l11.749-3.883c3.378-1.11,7.374-2.22,10.989-3.052v-0.083
		c-4.233,0.277-8.563,0.361-13.367,0.361h-9.371v-3.884h32.062v4.438l-12.368,3.995c-3.425,1.11-7.563,2.331-11.321,3.246
		l0.048,0.083c4.233-0.111,8.753-0.166,13.985-0.166h9.656V43.064z"/>
	<path fill="#2E3192" d="M58.532,20.316v5.021h-6.089v-14.37h6.089v5.104h25.973v4.245H58.532z"/>
</g>
<g>
	<path fill-rule="evenodd" clip-rule="evenodd" fill="#2E3192" d="M90.121,41.38c2.535,0,5.005,0,7.492,0
		c0.012,0.109,0.029,0.195,0.029,0.281c-0.001,4.848,0.008,9.696-0.012,14.543c-0.006,1.33-0.255,2.623-0.817,3.844
		c-0.577,1.252-1.444,2.264-2.523,3.104c-1.152,0.898-2.441,1.555-3.783,2.109c-4.769,1.973-9.54,3.939-14.312,5.908
		c-1.52,0.627-3.079,1.115-4.707,1.383c-1.245,0.205-2.497,0.236-3.755,0.232c-2.769-0.012-5.353-0.77-7.879-1.834
		c-4.604-1.936-9.224-3.836-13.836-5.752c-1.078-0.447-2.127-0.955-3.105-1.6c-1.363-0.896-2.493-2.006-3.206-3.5
		c-0.463-0.973-0.725-2-0.816-3.066c-0.058-0.676-0.076-1.355-0.079-2.035c-0.01-2.129-0.003-4.257-0.003-6.386
		c0-0.14,0-0.279,0-0.469c-0.946-0.039-1.864-0.013-2.78-0.018c-0.937-0.005-1.873-0.001-2.809-0.001c-0.92,0-1.84,0-2.786,0
		c0-2.263,0-4.486,0-6.706c0.329-0.083,15.48-0.09,15.884,0c0,0.15,0,0.314,0,0.478c0.004,4.578,0.004,9.157,0.018,13.735
		c0.001,0.51,0.061,1.023,0.136,1.529c0.088,0.598,0.397,1.092,0.902,1.42c0.46,0.299,0.941,0.578,1.443,0.795
		c1.551,0.674,3.114,1.318,4.675,1.969c3.264,1.359,6.525,2.721,9.792,4.074c0.947,0.393,1.915,0.723,2.93,0.906
		c2.119,0.379,4.18,0.219,6.183-0.609c3.029-1.254,6.066-2.49,9.101-3.734c1.788-0.734,3.579-1.467,5.366-2.207
		c0.448-0.186,0.888-0.398,1.327-0.605c0.162-0.076,0.313-0.174,0.469-0.264c0.88-0.514,1.325-1.297,1.397-2.297
		c0.036-0.486,0.061-0.973,0.062-1.461c0.006-3.039,0.004-6.079,0.004-9.118c0-1.385,0-2.77,0-4.154
		C90.121,41.723,90.121,41.572,90.121,41.38z"/>
</g>
<g>
	<path fill="#ED1C24" d="M2.301,55.586c0-8.163,3.812-13.936,10.036-17.321l-0.078-0.299c-5.602-3.384-8.013-8.959-8.013-14.533
		c0-10.253,6.768-17.222,15.636-17.222c9.802,0,14.704,7.864,14.704,15.927c0,5.476-2.101,11.349-8.324,15.132v0.298
		c6.302,3.186,10.191,8.86,10.191,16.725c0,11.248-7.546,18.814-17.193,18.814C8.68,73.107,2.301,65.043,2.301,55.586z
		 M29.799,55.188c0-7.864-4.279-11.646-11.125-14.135c-5.913,2.19-9.102,7.168-9.102,13.338
		c-0.233,6.572,3.656,12.346,10.113,12.346C25.831,66.736,29.799,61.857,29.799,55.188z M10.972,22.835
		c0,6.471,3.812,9.955,9.647,11.946c4.356-1.892,7.702-5.874,7.702-11.747c0-5.176-2.412-10.552-8.557-10.552
		C14.084,12.483,10.972,17.261,10.972,22.835z"/>
</g>
<g>
	<linearGradient id="SVGID_1_" gradientUnits="userSpaceOnUse" x1="7.2295" y1="93.7891" x2="7.2295" y2="78.5117">
		<stop  offset="0" style="stop-color:#ED1C24"/>
		<stop  offset="1" style="stop-color:#2E3192"/>
	</linearGradient>
	<path fill="url(#SVGID_1_)" d="M7.338,78.512c1.154,0,2.115,0.297,2.885,0.893c0.798,0.623,1.197,1.441,1.197,2.453
		c0,1.574-0.9,2.816-2.7,3.73c1.19,0.566,2.039,1.15,2.547,1.752c0.566,0.68,0.849,1.48,0.849,2.4c0,0.93-0.305,1.732-0.915,2.412
		c-0.559,0.623-1.306,1.078-2.243,1.359c-0.617,0.184-1.259,0.277-1.927,0.277c-1.292,0-2.381-0.33-3.266-0.988
		c-0.951-0.693-1.426-1.598-1.426-2.709c0-0.949,0.283-1.756,0.849-2.424c0.544-0.637,1.332-1.195,2.363-1.678
		c-0.93-0.488-1.622-1.016-2.08-1.582c-0.457-0.566-0.686-1.277-0.686-2.137c0-1.174,0.446-2.109,1.339-2.803
		C4.939,78.83,6.01,78.512,7.338,78.512z M7.23,92.695c1.168,0,1.952-0.525,2.351-1.572c0.124-0.326,0.185-0.688,0.185-1.084
		c0-1.148-0.625-2.09-1.872-2.826c-0.399-0.234-0.828-0.457-1.285-0.67c-0.646,0.283-1.154,0.74-1.524,1.371
		c-0.355,0.602-0.534,1.268-0.534,1.998c0,1.26,0.501,2.109,1.502,2.549C6.395,92.617,6.787,92.695,7.23,92.695z M7.099,79.553
		c-0.646,0-1.15,0.221-1.513,0.664c-0.363,0.443-0.545,0.984-0.545,1.619c0,0.787,0.222,1.422,0.665,1.904
		c0.363,0.402,1.005,0.826,1.927,1.273h0.152c1.089-0.602,1.633-1.6,1.633-2.996c0-0.736-0.205-1.332-0.615-1.785
		S7.825,79.553,7.099,79.553z"/>
	<linearGradient id="SVGID_2_" gradientUnits="userSpaceOnUse" x1="17.7739" y1="93.7891" x2="17.7739" y2="83.7266">
		<stop  offset="0" style="stop-color:#ED1C24"/>
		<stop  offset="1" style="stop-color:#2E3192"/>
	</linearGradient>
	<path fill="url(#SVGID_2_)" d="M18.628,83.727c1.03,0,2.003,0.172,2.918,0.512c0.072,0.027,0.108,0.064,0.108,0.105v2.518
		c0,0.064-0.036,0.096-0.108,0.096h-0.697c-0.072,0-0.108-0.031-0.108-0.096l-0.359-1.646c0-0.041-0.029-0.088-0.087-0.137
		c-0.625-0.285-1.205-0.426-1.742-0.426c-0.958,0-1.72,0.383-2.286,1.146c-0.508,0.688-0.762,1.516-0.762,2.486
		c0,1.211,0.272,2.199,0.817,2.965c0.624,0.877,1.531,1.318,2.722,1.318c0.885,0,1.727-0.264,2.525-0.787
		c0.043-0.029,0.072-0.035,0.087-0.021c0.015,0.016,0.029,0.035,0.044,0.064l0.315,0.529c0.029,0.051,0.007,0.102-0.065,0.15
		c-1.271,0.855-2.512,1.285-3.724,1.285c-1.444,0-2.591-0.439-3.44-1.318c-0.842-0.857-1.263-1.992-1.263-3.41
		c0-1.486,0.465-2.74,1.394-3.76C15.881,84.252,17.118,83.727,18.628,83.727z"/>
	<linearGradient id="SVGID_3_" gradientUnits="userSpaceOnUse" x1="27.7534" y1="93.7891" x2="27.7534" y2="83.7266">
		<stop  offset="0" style="stop-color:#ED1C24"/>
		<stop  offset="1" style="stop-color:#2E3192"/>
	</linearGradient>
	<path fill="url(#SVGID_3_)" d="M25.465,88.541c0.029,1.182,0.312,2.125,0.849,2.826c0.617,0.799,1.506,1.201,2.667,1.201
		c0.929,0,1.8-0.25,2.613-0.744c0.029-0.029,0.054-0.037,0.076-0.021c0.015,0.021,0.033,0.041,0.055,0.063l0.316,0.531
		c0.015,0.064-0.007,0.113-0.065,0.148c-1.27,0.83-2.555,1.244-3.854,1.244c-1.451,0-2.594-0.439-3.429-1.318
		c-0.82-0.85-1.23-1.986-1.23-3.41c0-1.459,0.399-2.688,1.197-3.686c0.871-1.098,2.032-1.648,3.484-1.648
		c1.285,0,2.261,0.359,2.929,1.074c0.646,0.695,0.969,1.672,0.969,2.934c0,0.225-0.015,0.459-0.043,0.699
		c0,0.072-0.037,0.107-0.109,0.107H25.465z M27.936,84.693c-1.161,0-1.913,0.631-2.253,1.893c-0.102,0.375-0.167,0.742-0.196,1.105
		h4.55C30.103,85.693,29.402,84.693,27.936,84.693z"/>
	<linearGradient id="SVGID_4_" gradientUnits="userSpaceOnUse" x1="39.3833" y1="93.4805" x2="39.3833" y2="83.6855">
		<stop  offset="0" style="stop-color:#ED1C24"/>
		<stop  offset="1" style="stop-color:#2E3192"/>
	</linearGradient>
	<path fill="url(#SVGID_4_)" d="M36.341,83.844c0.08-0.014,0.127-0.02,0.142-0.02h0.62c0.073,0,0.109,0.035,0.109,0.105v0.936
		c0.668-0.518,1.488-0.879,2.46-1.084c0.298-0.064,0.625-0.096,0.98-0.096c1.916,0,2.874,1.051,2.874,3.156v5.619
		c0,0.07,0.037,0.107,0.109,0.107l1.448,0.146c0.072,0,0.108,0.039,0.108,0.117v0.543c0,0.07-0.036,0.105-0.108,0.105h-4.877
		c-0.08,0-0.12-0.035-0.12-0.105v-0.543c0-0.078,0.04-0.117,0.12-0.117l1.405-0.146c0.072,0,0.108-0.037,0.108-0.107v-4.982
		c0-0.779-0.141-1.354-0.424-1.721c-0.327-0.418-0.878-0.629-1.655-0.629c-0.879,0-1.651,0.168-2.319,0.502
		c-0.059,0.027-0.095,0.055-0.109,0.084v6.746c0,0.07,0.036,0.107,0.109,0.107l1.404,0.146c0.08,0,0.12,0.039,0.12,0.117v0.543
		c0,0.07-0.04,0.105-0.12,0.105h-4.986c-0.08,0-0.12-0.035-0.12-0.105v-0.543c0-0.078,0.04-0.117,0.12-0.117l1.557-0.146
		c0.072,0,0.108-0.037,0.108-0.107v-7.182c0-0.07-0.036-0.105-0.108-0.105l-1.601-0.182c-0.08,0-0.12-0.035-0.12-0.105v-0.5
		c0-0.07,0.029-0.105,0.087-0.105L36.341,83.844z"/>
	<linearGradient id="SVGID_5_" gradientUnits="userSpaceOnUse" x1="49.2603" y1="93.7891" x2="49.2603" y2="81.9004">
		<stop  offset="0" style="stop-color:#ED1C24"/>
		<stop  offset="1" style="stop-color:#2E3192"/>
	</linearGradient>
	<path fill="url(#SVGID_5_)" d="M47.315,85.236c0-0.07-0.04-0.107-0.12-0.107H45.91c-0.065,0-0.098-0.031-0.098-0.094v-0.107
		c0-0.041,0.026-0.084,0.076-0.127l2.853-2.805c0.065-0.064,0.123-0.096,0.174-0.096h0.109c0.065,0,0.097,0.039,0.097,0.117v1.996
		c0,0.072,0.037,0.107,0.109,0.107h2.961c0.073,0,0.109,0.039,0.109,0.117v0.775c0,0.078-0.036,0.115-0.109,0.115H49.23
		c-0.072,0-0.109,0.037-0.109,0.107v5.789c0,1.041,0.477,1.563,1.428,1.563c0.696,0,1.258-0.174,1.688-0.521
		c0.028-0.027,0.064-0.037,0.107-0.031c0.029,0.008,0.056,0.018,0.077,0.031l0.283,0.543c0.014,0.064-0.008,0.113-0.066,0.148
		c-0.573,0.375-1.066,0.631-1.48,0.764c-0.552,0.18-1.113,0.268-1.688,0.268c-0.609,0-1.121-0.186-1.534-0.553
		c-0.415-0.367-0.621-0.848-0.621-1.434V85.236z"/>
	<linearGradient id="SVGID_6_" gradientUnits="userSpaceOnUse" x1="55.7363" y1="93.7891" x2="55.7363" y2="91.2813">
		<stop  offset="0" style="stop-color:#ED1C24"/>
		<stop  offset="1" style="stop-color:#2E3192"/>
	</linearGradient>
	<path fill="url(#SVGID_6_)" d="M55.73,91.281c0.572,0,0.969,0.254,1.187,0.766c0.065,0.156,0.098,0.322,0.098,0.498
		c0,0.342-0.127,0.627-0.381,0.861c-0.276,0.256-0.577,0.383-0.903,0.383c-0.349,0-0.648-0.123-0.898-0.367
		c-0.251-0.244-0.375-0.535-0.375-0.877c0-0.354,0.123-0.652,0.369-0.896C55.073,91.404,55.375,91.281,55.73,91.281z"/>
	<linearGradient id="SVGID_7_" gradientUnits="userSpaceOnUse" x1="63.498" y1="93.7891" x2="63.498" y2="83.7266">
		<stop  offset="0" style="stop-color:#ED1C24"/>
		<stop  offset="1" style="stop-color:#2E3192"/>
	</linearGradient>
	<path fill="url(#SVGID_7_)" d="M64.353,83.727c1.031,0,2.003,0.172,2.918,0.512c0.071,0.027,0.108,0.064,0.108,0.105v2.518
		c0,0.064-0.037,0.096-0.108,0.096h-0.697c-0.073,0-0.108-0.031-0.108-0.096l-0.359-1.646c0-0.041-0.029-0.088-0.088-0.137
		c-0.624-0.285-1.204-0.426-1.742-0.426c-0.958,0-1.719,0.383-2.285,1.146c-0.508,0.688-0.762,1.516-0.762,2.486
		c0,1.211,0.271,2.199,0.816,2.965c0.623,0.877,1.53,1.318,2.721,1.318c0.886,0,1.728-0.264,2.526-0.787
		c0.043-0.029,0.072-0.035,0.087-0.021c0.015,0.016,0.028,0.035,0.043,0.064l0.316,0.529c0.029,0.051,0.007,0.102-0.064,0.15
		c-1.271,0.855-2.513,1.285-3.725,1.285c-1.444,0-2.591-0.439-3.439-1.318c-0.843-0.857-1.264-1.992-1.264-3.41
		c0-1.486,0.466-2.74,1.394-3.76C61.605,84.252,62.843,83.727,64.353,83.727z"/>
	<linearGradient id="SVGID_8_" gradientUnits="userSpaceOnUse" x1="74.1348" y1="93.7891" x2="74.1348" y2="83.7266">
		<stop  offset="0" style="stop-color:#ED1C24"/>
		<stop  offset="1" style="stop-color:#2E3192"/>
	</linearGradient>
	<path fill="url(#SVGID_8_)" d="M74.193,83.727c1.568,0,2.78,0.447,3.638,1.34c0.834,0.871,1.251,2.078,1.251,3.623
		c0,1.48-0.45,2.695-1.35,3.645c-0.929,0.969-2.145,1.455-3.647,1.455c-1.553,0-2.762-0.453-3.625-1.361
		c-0.849-0.877-1.273-2.076-1.273-3.6c0-1.502,0.446-2.721,1.338-3.654C71.447,84.209,72.67,83.727,74.193,83.727z M73.911,84.674
		c-0.966,0-1.68,0.396-2.145,1.189c-0.371,0.631-0.556,1.451-0.556,2.465c0,2.033,0.559,3.41,1.677,4.133
		c0.406,0.262,0.896,0.393,1.47,0.393c1.792,0,2.688-1.229,2.688-3.686c0-1.211-0.21-2.207-0.632-2.986
		C75.878,85.178,75.043,84.674,73.911,84.674z"/>
	<linearGradient id="SVGID_9_" gradientUnits="userSpaceOnUse" x1="89.0439" y1="93.4805" x2="89.0439" y2="83.6855">
		<stop  offset="0" style="stop-color:#ED1C24"/>
		<stop  offset="1" style="stop-color:#2E3192"/>
	</linearGradient>
	<path fill="url(#SVGID_9_)" d="M80.476,84.281l2.679-0.438c0.087-0.014,0.163-0.02,0.229-0.02h0.533
		c0.072,0,0.108,0.035,0.108,0.105v0.936c1.074-0.785,2.152-1.18,3.234-1.18c1.096,0,1.904,0.465,2.428,1.393
		c1.074-0.865,2.234-1.297,3.483-1.297c1.901,0,2.853,1.053,2.853,3.154v5.525c0,0.07,0.036,0.107,0.108,0.107l1.448,0.146
		c0.08,0,0.12,0.039,0.12,0.117v0.543c0,0.07-0.04,0.105-0.12,0.105h-4.769c-0.073,0-0.108-0.035-0.108-0.105v-0.543
		c0-0.078,0.035-0.117,0.108-0.117l1.295-0.146c0.073,0,0.109-0.037,0.109-0.107v-4.877c0-1.564-0.682-2.348-2.047-2.348
		c-0.856,0-1.601,0.195-2.231,0.584c0.058,0.229,0.087,0.553,0.087,0.979v5.662c0,0.07,0.036,0.107,0.109,0.107l1.295,0.146
		c0.072,0,0.109,0.039,0.109,0.117v0.543c0,0.07-0.037,0.105-0.109,0.105h-4.616c-0.072,0-0.108-0.035-0.108-0.105v-0.543
		c0-0.078,0.036-0.117,0.108-0.117l1.296-0.146c0.072,0,0.108-0.037,0.108-0.107v-4.982c0-1.564-0.652-2.35-1.959-2.35
		c-0.733,0-1.44,0.168-2.123,0.502c-0.029,0.014-0.065,0.041-0.109,0.084v6.746c0,0.07,0.037,0.107,0.109,0.107l1.296,0.146
		c0.072,0,0.108,0.039,0.108,0.117v0.543c0,0.07-0.036,0.105-0.108,0.105h-4.878c-0.08,0-0.119-0.035-0.119-0.105v-0.543
		c0-0.078,0.039-0.117,0.119-0.117l1.557-0.146c0.073,0,0.109-0.037,0.109-0.107v-7.182c0-0.07-0.036-0.105-0.109-0.105l-1.6-0.182
		c-0.08,0-0.12-0.035-0.12-0.105v-0.5C80.389,84.316,80.417,84.281,80.476,84.281z"/>
</g>
<g>
	<path fill="#2E3192" d="M51.672,71.203c-1.074-0.775-2.375-1.162-3.902-1.162c-1.609,0-2.962,0.406-4.056,1.223
		c-1.094,0.813-1.64,2.035-1.64,3.664c0,1.393,0.587,2.504,1.764,3.33s2.425,1.24,3.746,1.24c1.444,0,2.756-0.432,3.932-1.301
		c1.177-0.865,1.765-2.086,1.765-3.664C53.28,73.088,52.744,71.979,51.672,71.203z M47.672,76.574c-2.555,0-2.555-3.818,0-3.818
		C50.226,72.756,50.226,76.574,47.672,76.574z"/>
</g>
<g>
	<path fill="#2E3192" d="M94.388,71.203c-1.073-0.775-2.373-1.162-3.9-1.162c-1.609,0-2.963,0.406-4.057,1.223
		c-1.094,0.813-1.64,2.035-1.64,3.664c0,1.393,0.587,2.504,1.765,3.33c1.176,0.826,2.424,1.24,3.746,1.24
		c1.444,0,2.755-0.432,3.932-1.301c1.177-0.865,1.764-2.086,1.764-3.664C95.997,73.088,95.461,71.979,94.388,71.203z M90.389,76.574
		c-2.554,0-2.554-3.818,0-3.818C92.943,72.756,92.943,76.574,90.389,76.574z"/>
</g>
</svg>
