<?xml version="1.0" encoding="utf-8"?>
<!-- Generator: Adobe Illustrator 16.0.0, SVG Export Plug-In . SVG Version: 6.00 Build 0)  -->
<!DOCTYPE svg PUBLIC "-//W3C//DTD SVG 1.1//EN" "http://www.w3.org/Graphics/SVG/1.1/DTD/svg11.dtd">
<svg version="1.1" id="Layer_1" xmlns="http://www.w3.org/2000/svg" xmlns:xlink="http://www.w3.org/1999/xlink" x="0px" y="0px"
	 width="300px" height="207.244px" viewBox="0 0 300 207.244" enable-background="new 0 0 300 207.244" xml:space="preserve">
<g>
	<path fill="#9FB4C1" d="M61.139,22.767v-9.132c0-0.164-0.037-0.288-0.109-0.372c-0.073-0.085-0.207-0.154-0.396-0.207v-0.252h6.021
		c1.318,0,2.332,0.15,3.039,0.45c1.016,0.44,1.762,1.161,2.246,2.168c0.383,0.79,0.577,1.718,0.577,2.778
		c0,1.86-0.572,3.277-1.717,4.253c-0.482,0.413-1.042,0.707-1.685,0.881c-0.645,0.177-1.465,0.264-2.461,0.264h-6.021v-0.252
		c0.188-0.053,0.322-0.122,0.396-0.206C61.104,23.053,61.139,22.929,61.139,22.767z M63.495,21.819h2.961
		c0.944,0,1.653-0.127,2.129-0.386c1.02-0.553,1.528-1.633,1.528-3.234c0-1.159-0.275-2.049-0.825-2.665
		c-0.306-0.343-0.675-0.587-1.106-0.729c-0.433-0.142-1.009-0.219-1.727-0.219h-2.961L63.495,21.819L63.495,21.819z"/>
	<path fill="#9FB4C1" d="M76.637,19.832v2.159h5.622c0.163,0,0.288-0.038,0.376-0.111c0.086-0.072,0.156-0.207,0.208-0.398h0.222
		V24.1h-0.222c-0.047-0.183-0.116-0.315-0.206-0.393c-0.091-0.075-0.216-0.117-0.379-0.117h-8.246v-0.214
		c0.183-0.047,0.314-0.117,0.393-0.208c0.078-0.089,0.117-0.214,0.117-0.377v-7.244c0-0.165-0.039-0.287-0.11-0.372
		c-0.072-0.084-0.207-0.156-0.396-0.214V14.74h8.001c0.169,0,0.297-0.039,0.385-0.111c0.086-0.072,0.156-0.206,0.208-0.395h0.216
		v2.618h-0.216c-0.053-0.191-0.122-0.325-0.208-0.398c-0.088-0.073-0.216-0.111-0.385-0.111h-5.377v1.945h3.335
		c0.162,0,0.29-0.038,0.375-0.11c0.084-0.072,0.159-0.205,0.217-0.396h0.217v2.554h-0.217c-0.051-0.186-0.122-0.316-0.208-0.392
		c-0.086-0.076-0.216-0.113-0.383-0.113L76.637,19.832L76.637,19.832z"/>
	<path fill="#9FB4C1" d="M92.536,18.838c0.436,0.2,0.759,0.4,0.965,0.602c0.383,0.377,0.579,0.888,0.579,1.534
		c0,0.862-0.329,1.531-0.98,1.999c-0.58,0.416-1.379,0.624-2.396,0.624h-6.303v-0.22c0.184-0.047,0.313-0.117,0.393-0.208
		c0.079-0.089,0.116-0.214,0.116-0.377v-7.244c0-0.165-0.037-0.287-0.111-0.372c-0.072-0.084-0.206-0.156-0.396-0.214v-0.221h6.197
		c1.086,0,1.882,0.194,2.389,0.587c0.536,0.408,0.805,0.973,0.805,1.691c0,0.421-0.094,0.766-0.282,1.034
		C93.326,18.323,93.001,18.586,92.536,18.838z M87.024,18.063h3.22c0.507,0,0.862-0.064,1.075-0.194
		c0.208-0.128,0.316-0.352,0.316-0.668c0-0.311-0.104-0.532-0.313-0.66c-0.205-0.128-0.565-0.196-1.078-0.196h-3.22V18.063
		L87.024,18.063z M87.024,21.994h3.298c1.065,0,1.599-0.387,1.599-1.162c0-0.776-0.532-1.163-1.599-1.163h-3.298V21.994z"/>
	<path fill="#9FB4C1" d="M97.992,15.545v7.235c0,0.166,0.038,0.291,0.11,0.375c0.072,0.084,0.207,0.161,0.396,0.219v0.22h-3.13
		v-0.217c0.183-0.047,0.313-0.117,0.392-0.208c0.08-0.089,0.116-0.214,0.116-0.377v-7.244c0-0.165-0.037-0.287-0.109-0.372
		c-0.08-0.084-0.21-0.156-0.398-0.214v-0.221h3.132v0.221c-0.188,0.051-0.323,0.122-0.396,0.208
		C98.031,15.259,97.992,15.384,97.992,15.545z"/>
	<path fill="#9FB4C1" d="M104.942,16.344v6.438c0,0.166,0.039,0.291,0.111,0.375c0.072,0.084,0.206,0.161,0.395,0.219v0.22h-3.131
		v-0.217c0.184-0.047,0.313-0.117,0.393-0.208c0.078-0.089,0.117-0.214,0.117-0.377v-6.448h-2.609c-0.168,0-0.296,0.038-0.383,0.113
		c-0.088,0.077-0.158,0.208-0.21,0.393H99.41v-2.615h0.214c0.047,0.186,0.115,0.314,0.2,0.392s0.216,0.114,0.385,0.114h7.345
		c0.168,0,0.296-0.039,0.384-0.111c0.086-0.072,0.156-0.206,0.208-0.395h0.216v2.618h-0.216c-0.052-0.186-0.122-0.316-0.208-0.393
		c-0.088-0.075-0.216-0.112-0.384-0.112h-2.609v-0.005H104.942z"/>
	<path fill="#9FB4C1" d="M124.639,16.166v2.995h-0.252c-0.031-0.261-0.114-0.396-0.239-0.396c-0.115,0-0.289,0.077-0.521,0.23
		c-0.232,0.154-0.434,0.329-0.607,0.523c-0.311,0.343-0.525,0.715-0.647,1.115c0.328,0.332,0.609,0.568,0.848,0.709
		c0.241,0.139,0.485,0.208,0.741,0.208c0.231,0,0.372-0.127,0.427-0.38h0.252v2.49c-0.146-0.031-0.61-0.072-1.392-0.119
		c-0.303-0.023-0.675-0.159-1.118-0.418c-0.444-0.258-0.829-0.558-1.151-0.902c-1.072,1.042-2.342,1.564-3.812,1.564
		c-1.15,0-2.104-0.272-2.861-0.821c-0.86-0.616-1.291-1.433-1.291-2.443c0-1.355,0.803-2.425,2.406-3.212
		c-0.712-0.622-1.07-1.301-1.07-2.039c0-0.861,0.413-1.544,1.236-2.049c0.668-0.407,1.436-0.607,2.301-0.607
		c0.971,0,1.819,0.241,2.545,0.727c0.712,0.474,1.067,1.134,1.067,1.976c0,0.47-0.105,0.866-0.313,1.193
		c-0.209,0.329-0.581,0.68-1.118,1.061c0.55,0.355,0.974,0.854,1.275,1.502c0.505-0.875,1-1.526,1.485-1.956
		C123.315,16.688,123.917,16.371,124.639,16.166z M117.382,18.282c-0.59,0-1.104,0.172-1.535,0.515
		c-0.427,0.343-0.641,0.773-0.641,1.29c0,0.543,0.208,0.989,0.627,1.333c0.421,0.349,0.956,0.523,1.609,0.523
		c0.675,0,1.249-0.169,1.723-0.505c0.477-0.335,0.712-0.727,0.712-1.186c0-0.219-0.072-0.456-0.219-0.718
		c-0.146-0.261-0.328-0.48-0.55-0.654C118.625,18.489,118.05,18.289,117.382,18.282z M117.942,14.218
		c-0.401,0-0.75,0.099-1.053,0.293c-0.383,0.247-0.578,0.604-0.578,1.073c0,0.389,0.153,0.715,0.462,0.97
		c0.309,0.255,0.697,0.383,1.165,0.383c0.406,0,0.757-0.095,1.061-0.294c0.385-0.252,0.579-0.604,0.579-1.045
		c0-0.407-0.152-0.738-0.451-0.99S118.433,14.223,117.942,14.218z"/>
	<path fill="#9FB4C1" d="M140.546,19.887l1.502,2.249l-0.206,0.142c-0.149-0.136-0.271-0.206-0.363-0.206
		c-0.094,0-0.359,0.127-0.8,0.38c-0.906,0.523-1.667,0.878-2.288,1.059c-0.623,0.18-1.357,0.272-2.212,0.272
		c-1.703,0-3.097-0.403-4.188-1.212c-0.646-0.469-1.15-1.051-1.518-1.749c-0.427-0.796-0.643-1.673-0.643-2.632
		c0-1.308,0.381-2.443,1.146-3.408c1.151-1.45,2.886-2.176,5.209-2.176c0.854,0,1.586,0.089,2.198,0.267
		c0.61,0.18,1.376,0.535,2.291,1.062c0.44,0.247,0.704,0.372,0.8,0.372c0.095,0,0.217-0.067,0.363-0.207l0.206,0.143l-1.502,2.251
		l-0.214-0.142c0.011-0.085,0.014-0.155,0.014-0.213c0-0.15-0.064-0.297-0.197-0.427c-0.132-0.133-0.366-0.296-0.704-0.485
		c-0.932-0.526-1.921-0.787-2.967-0.787c-1.23,0-2.217,0.308-2.949,0.923c-0.862,0.724-1.295,1.666-1.295,2.828
		c0,1.165,0.434,2.107,1.295,2.828c0.732,0.616,1.719,0.923,2.949,0.923c1.043,0,2.032-0.264,2.967-0.79
		c0.337-0.189,0.572-0.352,0.704-0.485c0.13-0.133,0.197-0.279,0.197-0.43c0-0.058-0.003-0.125-0.014-0.207L140.546,19.887z"/>
	<path fill="#9FB4C1" d="M146.097,19.959v2.825c0,0.163,0.038,0.288,0.11,0.375c0.071,0.087,0.206,0.161,0.395,0.219v0.22h-3.131
		v-0.22c0.183-0.047,0.314-0.117,0.392-0.208c0.078-0.089,0.117-0.214,0.117-0.377v-7.244c0-0.165-0.039-0.287-0.11-0.372
		c-0.072-0.084-0.206-0.156-0.396-0.214v-0.221h5.806c0.754,0,1.326,0.038,1.724,0.116c0.392,0.078,0.749,0.216,1.056,0.416
		c0.643,0.416,0.956,1.095,0.956,2.039c0,0.718-0.195,1.277-0.587,1.683c-0.395,0.404-1.027,0.695-1.901,0.872l1.676,2.335
		c0.306,0.43,0.55,0.727,0.73,0.881c0.186,0.156,0.393,0.252,0.624,0.296v0.22h-3.726v-0.223c0.274-0.074,0.418-0.192,0.418-0.355
		c0-0.116-0.086-0.293-0.259-0.529l-1.767-2.534H146.097L146.097,19.959z M146.097,18.356h3.196c0.482,0,0.841-0.052,1.074-0.157
		c0.325-0.142,0.486-0.424,0.486-0.849c0-0.375-0.112-0.633-0.34-0.782c-0.233-0.147-0.639-0.224-1.222-0.224h-3.196L146.097,18.356
		L146.097,18.356z"/>
	<path fill="#9FB4C1" d="M157.245,19.832v2.159h5.623c0.165,0,0.29-0.038,0.375-0.111c0.085-0.072,0.157-0.207,0.21-0.398h0.221
		V24.1h-0.221c-0.05-0.183-0.113-0.315-0.204-0.393c-0.089-0.075-0.216-0.117-0.381-0.117h-8.245v-0.214
		c0.182-0.047,0.312-0.117,0.392-0.208c0.079-0.089,0.113-0.214,0.113-0.377v-7.244c0-0.165-0.04-0.287-0.113-0.372
		c-0.071-0.084-0.202-0.156-0.392-0.214V14.74h8.001c0.171,0,0.298-0.039,0.381-0.111c0.091-0.072,0.158-0.206,0.21-0.395h0.213
		v2.618h-0.213c-0.055-0.191-0.119-0.325-0.21-0.398c-0.083-0.073-0.21-0.111-0.381-0.111h-5.379v1.945h3.336
		c0.165,0,0.29-0.038,0.375-0.11c0.085-0.072,0.162-0.205,0.216-0.396h0.216v2.554h-0.216c-0.052-0.186-0.119-0.316-0.207-0.392
		c-0.086-0.075-0.213-0.113-0.384-0.113L157.245,19.832L157.245,19.832z"/>
	<path fill="#9FB4C1" d="M165.513,22.792v-7.244c0-0.165-0.037-0.287-0.107-0.372c-0.073-0.084-0.203-0.156-0.396-0.214v-0.221
		h5.195c1.081,0,1.933,0.133,2.554,0.404c0.877,0.38,1.507,1.007,1.89,1.882c0.271,0.61,0.403,1.325,0.403,2.141
		c0,1.514-0.451,2.662-1.351,3.44c-0.412,0.349-0.89,0.602-1.438,0.755c-0.547,0.154-1.236,0.232-2.06,0.232h-5.195v-0.22
		c0.182-0.047,0.313-0.117,0.392-0.208C165.479,23.08,165.513,22.956,165.513,22.792z M167.633,21.994h2.261
		c1.036,0,1.794-0.238,2.259-0.712c0.494-0.494,0.738-1.2,0.738-2.112s-0.244-1.616-0.738-2.112
		c-0.24-0.247-0.545-0.427-0.901-0.543c-0.357-0.114-0.813-0.172-1.362-0.172h-2.258v5.652L167.633,21.994L167.633,21.994z"/>
	<path fill="#9FB4C1" d="M179.027,15.545v7.235c0,0.166,0.037,0.291,0.11,0.375c0.074,0.084,0.205,0.161,0.397,0.219v0.22h-3.133
		v-0.217c0.185-0.047,0.314-0.117,0.393-0.208c0.079-0.089,0.113-0.214,0.113-0.377v-7.244c0-0.165-0.037-0.287-0.108-0.372
		c-0.073-0.084-0.204-0.156-0.396-0.214v-0.221h3.133v0.221c-0.188,0.051-0.323,0.122-0.397,0.208
		C179.064,15.259,179.027,15.384,179.027,15.545z"/>
	<path fill="#9FB4C1" d="M185.977,16.344v6.438c0,0.166,0.039,0.291,0.113,0.375c0.071,0.084,0.204,0.161,0.396,0.219v0.22h-3.133
		v-0.217c0.183-0.047,0.313-0.117,0.393-0.208c0.079-0.089,0.112-0.214,0.112-0.377v-6.448h-2.604c-0.173,0-0.301,0.038-0.386,0.113
		c-0.085,0.077-0.159,0.208-0.21,0.393h-0.217v-2.615h0.21c0.052,0.186,0.113,0.314,0.201,0.392s0.22,0.114,0.39,0.114h7.344
		c0.17,0,0.295-0.039,0.383-0.111c0.085-0.072,0.156-0.206,0.21-0.395h0.213v2.618h-0.213c-0.054-0.186-0.122-0.316-0.21-0.393
		c-0.088-0.075-0.213-0.112-0.383-0.112h-2.61V16.344L185.977,16.344z"/>
	<path fill="#9FB4C1" d="M205.004,19.887l1.507,2.249l-0.207,0.142c-0.146-0.136-0.267-0.206-0.363-0.206
		c-0.091,0-0.356,0.127-0.795,0.38c-0.91,0.523-1.671,0.878-2.289,1.059c-0.622,0.18-1.358,0.272-2.211,0.272
		c-1.702,0-3.099-0.403-4.189-1.212c-0.646-0.469-1.149-1.051-1.52-1.749c-0.423-0.796-0.638-1.673-0.638-2.632
		c0-1.308,0.383-2.443,1.147-3.408c1.149-1.45,2.884-2.176,5.211-2.176c0.851,0,1.582,0.089,2.198,0.267
		c0.609,0.18,1.373,0.535,2.289,1.062c0.438,0.247,0.704,0.372,0.801,0.372c0.095,0,0.214-0.067,0.363-0.207l0.204,0.143
		l-1.504,2.251l-0.213-0.142c0.012-0.085,0.017-0.155,0.017-0.213c0-0.15-0.063-0.297-0.194-0.427
		c-0.132-0.133-0.369-0.296-0.704-0.485c-0.935-0.526-1.924-0.787-2.969-0.787c-1.233,0-2.219,0.308-2.95,0.923
		c-0.862,0.724-1.293,1.666-1.293,2.828c0,1.165,0.431,2.107,1.293,2.828c0.731,0.616,1.717,0.923,2.95,0.923
		c1.045,0,2.032-0.264,2.969-0.79c0.335-0.189,0.572-0.352,0.704-0.485c0.131-0.133,0.194-0.279,0.194-0.43
		c0-0.058-0.005-0.125-0.017-0.207L205.004,19.887z"/>
	<path fill="#9FB4C1" d="M214.646,21.383h-4.074l-0.453,0.965c-0.111,0.233-0.172,0.415-0.172,0.546
		c0,0.252,0.175,0.416,0.512,0.482v0.22H207.2v-0.22c0.203-0.033,0.352-0.094,0.447-0.183c0.098-0.091,0.21-0.268,0.347-0.532
		l3.229-6.546c0.122-0.247,0.182-0.465,0.182-0.648c0-0.215-0.146-0.383-0.438-0.505v-0.221h3.438v0.221
		c-0.288,0.116-0.434,0.296-0.434,0.536c0,0.175,0.064,0.388,0.198,0.643l3.351,6.349c0.186,0.346,0.326,0.566,0.436,0.668
		c0.106,0.102,0.267,0.175,0.481,0.216v0.22h-3.615v-0.217c0.342-0.058,0.515-0.219,0.515-0.482c0-0.163-0.065-0.363-0.195-0.604
		L214.646,21.383z M214.007,20.142l-1.449-2.847l-1.385,2.847H214.007z"/>
	<path fill="#9FB4C1" d="M221.796,19.959v2.825c0,0.163,0.034,0.288,0.106,0.375c0.074,0.086,0.207,0.161,0.397,0.219v0.22h-3.133
		v-0.22c0.185-0.047,0.314-0.117,0.395-0.208c0.077-0.089,0.111-0.214,0.111-0.377v-7.244c0-0.165-0.034-0.287-0.108-0.372
		c-0.072-0.084-0.204-0.156-0.396-0.214v-0.221h5.806c0.755,0,1.328,0.038,1.727,0.116c0.395,0.078,0.749,0.216,1.055,0.416
		c0.642,0.416,0.96,1.095,0.96,2.039c0,0.718-0.196,1.277-0.591,1.683c-0.393,0.404-1.027,0.695-1.898,0.872l1.672,2.335
		c0.308,0.43,0.55,0.727,0.731,0.881c0.185,0.156,0.392,0.252,0.625,0.296v0.22h-3.727v-0.223c0.275-0.074,0.417-0.192,0.417-0.355
		c0-0.116-0.085-0.293-0.256-0.529l-1.768-2.534H221.796L221.796,19.959z M221.796,18.356h3.194c0.481,0,0.841-0.052,1.072-0.157
		c0.326-0.142,0.493-0.424,0.493-0.849c0-0.375-0.119-0.633-0.346-0.782c-0.229-0.147-0.636-0.224-1.222-0.224h-3.193
		L221.796,18.356L221.796,18.356z"/>
	<path fill="#9FB4C1" d="M230.821,22.792v-7.244c0-0.165-0.035-0.287-0.109-0.372c-0.074-0.084-0.204-0.156-0.397-0.214v-0.221
		h5.198c1.078,0,1.93,0.133,2.554,0.404c0.874,0.38,1.504,1.007,1.891,1.882c0.267,0.61,0.402,1.325,0.402,2.141
		c0,1.514-0.45,2.662-1.351,3.44c-0.412,0.349-0.889,0.602-1.437,0.755c-0.551,0.154-1.236,0.232-2.061,0.232h-5.198v-0.22
		c0.186-0.047,0.315-0.117,0.396-0.208C230.785,23.08,230.821,22.956,230.821,22.792z M232.941,21.994h2.262
		c1.035,0,1.794-0.238,2.262-0.712c0.488-0.494,0.731-1.2,0.731-2.112s-0.243-1.616-0.731-2.112
		c-0.244-0.247-0.545-0.427-0.905-0.543c-0.354-0.114-0.809-0.172-1.357-0.172h-2.26L232.941,21.994L232.941,21.994z"/>
</g>
<g>
	<path fill="#005B9D" d="M27.275,35.98h106.999c3.027,0,5.503,2.458,5.503,5.471v60.891c0,3.009-2.479,5.47-5.503,5.47H27.275
		c-3.026,0-5.506-2.465-5.506-5.47V41.451C21.77,38.439,24.248,35.98,27.275,35.98L27.275,35.98z M28.812,37.467h103.919
		c2.944,0,5.347,2.359,5.347,5.239v58.374c0,2.886-2.405,5.245-5.347,5.245H28.812c-2.938,0-5.346-2.359-5.346-5.245V42.707
		C23.466,39.824,25.873,37.467,28.812,37.467L28.812,37.467z"/>
	<path fill="#FFFFFF" d="M28.914,37.259h103.717c2.998,0,5.445,2.348,5.445,5.219v58.098c0,2.869-2.447,5.222-5.445,5.222H28.914
		c-2.995,0-5.448-2.354-5.448-5.222V42.478C23.466,39.607,25.919,37.259,28.914,37.259L28.914,37.259z"/>
	<polygon fill="#005B9D" points="66.872,82.677 73.386,61.191 79.2,61.191 72.686,82.677 	"/>
	<path fill="#005B9D" d="M64.274,61.201l-5.231,9.103c-1.331,2.385-2.11,3.591-2.481,5.099h-0.08c0.095-1.916-0.176-4.259-0.2-5.584
		l-0.573-8.618h-9.789l-0.101,0.575c2.515,0,4.001,1.264,4.414,3.848l1.907,17.054h6.021l12.18-21.477H64.274L64.274,61.201z"/>
	<path fill="#005B9D" d="M109.481,82.677l-0.16-3.195l-7.264-0.01l-1.484,3.205h-6.308l11.444-21.445h7.746l1.938,21.445H109.481
		L109.481,82.677z M108.813,70.004c-0.063-1.586-0.119-3.743-0.009-5.046h-0.083c-0.354,1.065-1.878,4.271-2.547,5.845l-2.161,4.71
		h5.096L108.813,70.004L108.813,70.004z"/>
	<path fill="#005B9D" d="M85.302,83.282c-4.106,0-6.829-1.295-8.772-2.458l2.769-4.23c1.747,0.976,3.119,2.104,6.271,2.104
		c1.012,0,1.99-0.265,2.545-1.222c0.809-1.4-0.188-2.149-2.458-3.438l-1.12-0.729c-3.368-2.301-4.824-4.487-3.24-8.299
		c1.017-2.44,3.689-4.288,8.104-4.288c3.043-0.002,5.894,1.315,7.561,2.601l-3.185,3.733c-1.622-1.31-2.966-1.972-4.507-1.972
		c-1.223,0-2.156,0.47-2.48,1.109c-0.604,1.197,0.193,2.019,1.965,3.111l1.333,0.848c4.084,2.578,5.061,5.283,4.035,7.81
		C92.359,82.314,88.91,83.282,85.302,83.282L85.302,83.282z"/>
	<path fill="#FBAB29" d="M136.836,89.345H24.71v11.103c0,0.574,0.098,1.124,0.271,1.638H136.56c0.18-0.515,0.273-1.064,0.273-1.638
		V89.345H136.836z"/>
	<path fill="#005B9D" d="M136.618,41.881H24.928c-0.139,0.462-0.217,0.957-0.217,1.458v11.28h112.126v-11.28
		C136.836,42.837,136.761,42.343,136.618,41.881L136.618,41.881z"/>
	<path fill="#005B9D" d="M117.122,64.104h-0.25v-1.535h0.582c0.368,0,0.558,0.133,0.558,0.446c0,0.275-0.172,0.389-0.401,0.417
		l0.428,0.672h-0.284l-0.396-0.654h-0.238v0.654H117.122z M117.404,63.234c0.189,0,0.358-0.017,0.358-0.238
		c0-0.186-0.183-0.211-0.332-0.211h-0.305v0.45L117.404,63.234L117.404,63.234z M117.399,64.695c-0.793,0-1.362-0.596-1.362-1.383
		c0-0.833,0.628-1.385,1.362-1.385c0.727,0,1.356,0.552,1.356,1.385C118.755,64.143,118.125,64.695,117.399,64.695L117.399,64.695z
		 M117.399,62.168c-0.599,0-1.066,0.473-1.066,1.146c0,0.628,0.41,1.142,1.066,1.142c0.597,0,1.061-0.464,1.061-1.142
		C118.456,62.641,117.992,62.168,117.399,62.168L117.399,62.168z"/>
</g>
<g>
	<path fill="#6E6F72" d="M27.275,120.778h106.999c3.024,0,5.506,2.457,5.506,5.47v60.894c0,3.006-2.48,5.469-5.506,5.469H27.275
		c-3.026,0-5.506-2.463-5.506-5.469v-60.896C21.77,123.235,24.248,120.778,27.275,120.778L27.275,120.778z M28.812,122.263h103.922
		c2.944,0,5.351,2.359,5.351,5.237v58.377c0,2.883-2.406,5.246-5.351,5.246H28.812c-2.938,0-5.346-2.363-5.346-5.246v-58.372
		C23.466,124.623,25.873,122.263,28.812,122.263L28.812,122.263z"/>
	
		<linearGradient id="SVGID_1_" gradientUnits="userSpaceOnUse" x1="531.5715" y1="740.8574" x2="620.374" y2="652.0552" gradientTransform="matrix(1 0 0 1 -495.1992 -539.9805)">
		<stop  offset="0" style="stop-color:#FFFFFF"/>
		<stop  offset="1" style="stop-color:#BDBEC0"/>
	</linearGradient>
	<path fill="url(#SVGID_1_)" d="M28.909,121.831h103.724c2.997,0,5.444,2.375,5.444,5.277v58.738c0,2.896-2.447,5.276-5.444,5.276
		H28.909c-2.992,0-5.442-2.381-5.442-5.276v-58.738C23.466,124.206,25.914,121.831,28.909,121.831L28.909,121.831z"/>
	<g>
		<path fill="#0680B0" d="M111.259,150.903c-2.71,0-4.858,0.729-6.499,1.061l-0.505,4.154c0.822-0.396,3.408-1.118,5.554-1.188
			c2.146-0.063,3.407,0.393,2.967,2.242c-6.377,0-10.666,1.316-11.551,5.479c-1.261,7.119,6.502,6.928,9.59,3.822l-0.377,1.715
			h5.678l2.46-11.348C119.589,152.028,115.234,150.841,111.259,150.903z M111.64,162.515c-0.317,1.514-1.514,2.178-2.963,2.24
			c-1.264,0.063-2.4-1.056-1.578-2.372c0.63-1.123,2.399-1.388,3.469-1.388h1.39C111.829,161.526,111.765,161.985,111.64,162.515z
			 M123.44,146.414l-4.698,21.774h5.77l4.757-21.774H123.44z M96.936,146.481H86.373l-4.678,21.707h6.131l1.581-7.19h4.367
			c4.301,0,7.842-2.64,8.789-7.127C103.639,148.798,99.974,146.481,96.936,146.481z M96.747,153.871
			c-0.381,1.651-2.026,2.968-3.606,2.968h-2.845l1.267-5.936h3.033C96.176,150.903,97.127,152.226,96.747,153.871z"/>
		<path fill="#1B5B80" d="M55.95,150.903c-2.681,0-4.802,0.729-6.36,1.061l-0.498,4.154c0.75-0.396,3.307-1.118,5.425-1.188
			c2.118-0.063,3.368,0.393,2.994,2.242c-6.298,0-10.537,1.316-11.408,5.479c-1.247,7.119,6.421,6.928,9.411,3.822l-0.372,1.715
			h5.675l2.43-11.348C64.24,152.028,59.879,150.841,55.95,150.903z M56.389,162.515c-0.313,1.514-1.561,2.178-2.992,2.24
			c-1.247,0.063-2.309-1.056-1.497-2.372c0.622-1.123,2.368-1.388,3.364-1.388h1.433C56.575,161.526,56.45,161.985,56.389,162.515z
			 M41.841,146.481H31.253l-4.69,21.707h6.215l1.521-7.19h4.438c4.249,0,7.8-2.64,8.749-7.127
			C48.564,148.798,44.95,146.481,41.841,146.481z M41.653,153.871c-0.382,1.651-1.968,2.968-3.551,2.968h-2.917l1.333-5.936h3.042
			C41.08,150.903,42.1,152.226,41.653,153.871z M72.302,161.322l-0.915-10.107h-5.675l2.317,17.081l-4.146,7.111h6.343
			l13.479-24.192h-5.858L72.302,161.322z M134.472,146.319l-0.695,2.023c-0.065,0.201-0.118,0.363-0.152,0.465
			c-0.03-0.091-0.075-0.238-0.14-0.426l-0.684-2.063h-0.572v2.914h0.366v-2.479l0.837,2.479h0.345l0.841-2.438v2.438h0.368v-2.914
			H134.472L134.472,146.319z M129.562,146.664h0.949v2.569h0.387v-2.569h0.953v-0.345h-2.29L129.562,146.664L129.562,146.664z"/>
	</g>
</g>
<g>
	<path fill="#6E6F72" d="M169.332,120.778h106.999c3.023,0,5.505,2.457,5.505,5.47v60.894c0,3.006-2.48,5.469-5.505,5.469H169.332
		c-3.027,0-5.505-2.463-5.505-5.469v-60.896C163.827,123.235,166.305,120.778,169.332,120.778L169.332,120.778z M170.87,122.263
		h103.92c2.941,0,5.349,2.359,5.349,5.237v58.377c0,2.883-2.406,5.246-5.349,5.246H170.87c-2.939,0-5.347-2.363-5.347-5.246v-58.372
		C165.524,124.623,167.931,122.263,170.87,122.263L170.87,122.263z"/>
	
		<linearGradient id="SVGID_2_" gradientUnits="userSpaceOnUse" x1="673.7678" y1="652.3379" x2="762.4372" y2="741.0073" gradientTransform="matrix(1 0 0 1 -495.1992 -539.9805)">
		<stop  offset="0" style="stop-color:#FFFFFF"/>
		<stop  offset="1" style="stop-color:#BDBEC0"/>
	</linearGradient>
	<path fill="url(#SVGID_2_)" d="M170.972,122.263H274.83c3.002,0,5.449,2.357,5.449,5.245v58.369c0,2.886-2.447,5.246-5.449,5.246
		H170.972c-2.996,0-5.447-2.36-5.447-5.246v-58.369C165.524,124.62,167.976,122.263,170.972,122.263L170.972,122.263z"/>
	<g>
		<path fill="#1D2E5C" d="M188.087,174.629c-1.302-0.922-1.322-2.362-1.391-3.711c-0.097-1.833-0.052-3.672-0.012-5.51
			c0.012-0.382,0.176-0.81,0.403-1.124c1.379-1.885,2.78-3.74,4.188-5.612c1.227-1.635,1.227-2.333-0.033-4.007
			c-1.396-1.872-2.804-3.732-4.188-5.611c-0.185-0.25-0.369-0.591-0.369-0.886c0.028-2.33,0.065-4.665,0.165-6.997
			c0.021-0.52,0.228-1.056,0.448-1.538c0.445-0.959,1.226-1.13,2.06-0.569c0.567,0.389,1.078,0.922,1.492,1.48
			c3.11,4.128,6.197,8.275,9.266,12.434c2.125,2.881,2.112,4.564-0.031,7.453c-2.9,3.926-5.804,7.838-8.745,11.73
			c-0.664,0.885-1.504,1.64-2.256,2.463C188.757,174.629,188.416,174.629,188.087,174.629z"/>
		<path fill="#1D2E5C" d="M250.028,169.022c1.458-2.19,2.756-4.162,4.065-6.117c1.465-2.186,2.911-4.375,4.418-6.529
			c0.438-0.618,0.392-1.053-0.022-1.643c-2.609-3.717-5.187-7.455-7.931-11.424c2.403,0,4.582-0.028,6.769,0.033
			c0.285,0.012,0.641,0.457,0.84,0.777c1.452,2.341,2.871,4.699,4.307,7.049c0.193,0.313,0.403,0.611,0.695,1.044
			c1.586-2.701,3.133-5.261,4.588-7.877c0.443-0.797,0.937-1.095,1.854-1.053c1.79,0.077,3.583,0.021,5.633,0.021
			c-1.434,2.11-2.752,4.057-4.08,6.004c-1.197,1.756-2.378,3.523-3.623,5.252c-0.451,0.637-0.479,1.075-0.009,1.746
			c2.636,3.756,5.209,7.559,7.803,11.34c0.256,0.375,0.499,0.758,0.905,1.371c-2.382,0-4.568,0.033-6.739-0.043
			c-0.323-0.015-0.688-0.548-0.91-0.91c-1.882-3.054-3.731-6.121-5.664-9.308c-0.249,0.329-0.465,0.56-0.621,0.817
			c-1.677,2.84-3.377,5.66-5.011,8.518c-0.409,0.721-0.862,0.98-1.674,0.953C253.836,168.978,252.06,169.022,250.028,169.022z"/>
		<path fill="#1D2E5C" d="M235.37,158.813c0,3.224-0.037,6.055,0.021,8.887c0.028,1.035-0.267,1.406-1.328,1.345
			c-1.4-0.085-2.813-0.022-4.293-0.022c0-8.603,0-17.063,0-25.602c0.265-0.043,0.531-0.115,0.805-0.115
			c3.342-0.01,6.688-0.068,10.016,0.02c2.506,0.064,4.954,0.542,6.689,2.566c2.226,2.598,2.181,5.637,1.131,8.621
			c-1.045,2.963-3.624,4.037-6.516,4.272C239.794,158.95,237.663,158.813,235.37,158.813z M235.438,154.084
			c1.736,0,3.325,0.091,4.893-0.028c1.689-0.134,2.742-1.279,2.852-2.807c0.099-1.43-0.826-2.689-2.488-2.954
			c-1.709-0.267-3.459-0.246-5.255-0.354C235.438,150.117,235.438,152.056,235.438,154.084z"/>
		<path fill="#1D2E5C" d="M208.423,168.949c0-8.587,0-17.052,0-25.582c5.698,0,11.318,0,17.158,0c0,1.515,0.037,3.041-0.055,4.557
			c-0.006,0.201-0.66,0.517-1.019,0.517c-3.008,0.045-6.021,0.022-9.023,0.022c-0.453,0-0.914,0-1.479,0c0,1.765,0,3.444,0,5.269
			c3.505,0,6.989,0,10.575,0c0,1.785,0,3.438,0,5.217c-3.49,0-6.979,0-10.651,0c0,3.398,0,6.662,0,9.999
			C212.018,168.949,210.287,168.949,208.423,168.949z"/>
		<path fill="#218BCB" d="M183.045,174.629c1.3-0.922,1.325-2.362,1.394-3.711c0.091-1.833,0.043-3.672,0-5.51
			c-0.006-0.382-0.17-0.81-0.392-1.124c-1.382-1.885-2.798-3.74-4.19-5.612c-1.229-1.635-1.224-2.333,0.03-4.007
			c1.396-1.872,2.81-3.732,4.188-5.611c0.185-0.25,0.362-0.591,0.362-0.886c-0.017-2.33-0.063-4.665-0.159-6.997
			c-0.02-0.52-0.227-1.056-0.453-1.538c-0.435-0.959-1.221-1.13-2.049-0.569c-0.572,0.389-1.081,0.922-1.499,1.48
			c-3.108,4.128-6.195,8.275-9.271,12.434c-2.119,2.881-2.105,4.564,0.034,7.453c2.908,3.926,5.809,7.838,8.751,11.73
			c0.664,0.885,1.498,1.64,2.256,2.463C182.373,174.629,182.708,174.629,183.045,174.629z"/>
	</g>
</g>
<g>
	<path fill="#6E6F72" d="M167.147,35.466h106.999c3.024,0,5.504,2.458,5.504,5.472v60.894c0,3.003-2.479,5.468-5.504,5.468H167.147
		c-3.026,0-5.505-2.464-5.505-5.468V40.938C161.643,37.924,164.12,35.466,167.147,35.466L167.147,35.466z M168.686,36.954h103.92
		c2.942,0,5.35,2.359,5.35,5.239v58.377c0,2.883-2.406,5.246-5.35,5.246h-103.92c-2.939,0-5.346-2.362-5.346-5.246V42.193
		C163.34,39.313,165.745,36.954,168.686,36.954L168.686,36.954z"/>
	
		<linearGradient id="SVGID_3_" gradientUnits="userSpaceOnUse" x1="671.5481" y1="567.0654" x2="760.1462" y2="655.6639" gradientTransform="matrix(1 0 0 1 -495.1992 -539.9805)">
		<stop  offset="0" style="stop-color:#FFFFFF"/>
		<stop  offset="1" style="stop-color:#BDBEC0"/>
	</linearGradient>
	<path fill="url(#SVGID_3_)" d="M168.781,36.954h103.729c2.996,0,5.445,2.361,5.445,5.245v58.373c0,2.879-2.449,5.244-5.445,5.244
		H168.781c-2.989,0-5.44-2.36-5.44-5.244V42.199C163.34,39.314,165.791,36.954,168.781,36.954L168.781,36.954z"/>
	<polygon fill="#FCB430" points="237.555,98.56 238.959,98.524 240.347,98.419 241.691,98.246 243.042,98.008 244.354,97.706 
		245.647,97.34 246.912,96.908 248.149,96.423 249.361,95.869 250.533,95.272 251.668,94.617 252.78,93.914 253.845,93.146 
		254.874,92.341 255.861,91.49 256.81,90.584 257.712,89.639 258.568,88.646 259.369,87.62 260.132,86.556 260.839,85.447 
		261.5,84.313 262.096,83.137 262.644,81.928 263.131,80.691 263.568,79.427 263.932,78.133 264.229,76.824 264.471,75.475 
		264.646,74.118 264.746,72.732 264.782,71.329 264.746,69.94 264.646,68.563 264.471,67.206 264.229,65.875 263.932,64.562 
		263.568,63.281 263.131,62.014 262.644,60.791 262.096,59.588 261.5,58.41 260.839,57.287 260.132,56.18 259.369,55.116 
		258.568,54.093 257.712,53.106 256.81,52.164 255.861,51.263 254.874,50.412 253.845,49.602 252.78,48.843 251.668,48.14 
		250.533,47.486 249.361,46.891 248.149,46.338 246.912,45.854 245.647,45.423 244.354,45.058 243.042,44.752 241.691,44.52 
		240.347,44.342 238.959,44.24 237.555,44.206 236.159,44.24 234.774,44.342 233.424,44.52 232.078,44.752 230.773,45.058 
		229.479,45.423 228.22,45.854 226.985,46.338 225.779,46.891 224.616,47.486 223.481,48.14 222.38,48.843 221.319,49.602 
		220.289,50.412 219.311,51.263 218.365,52.164 217.466,53.106 216.614,54.093 215.806,55.116 215.054,56.18 214.345,57.287 
		213.698,58.41 213.102,59.588 212.555,60.791 212.066,62.014 211.649,63.281 211.28,64.562 210.974,65.875 210.741,67.206 
		210.565,68.563 210.463,69.94 210.429,71.329 210.463,72.732 210.565,74.118 210.741,75.475 210.974,76.824 211.28,78.133 
		211.649,79.427 212.066,80.691 212.555,81.928 213.102,83.137 213.698,84.313 214.345,85.447 215.054,86.556 215.806,87.62 
		216.614,88.646 217.466,89.639 218.365,90.584 219.311,91.49 220.289,92.341 221.319,93.146 222.38,93.914 223.481,94.617 
		224.616,95.272 225.779,95.869 226.985,96.423 228.22,96.908 229.479,97.34 230.773,97.706 232.078,98.008 233.424,98.246 
		234.774,98.419 236.159,98.524 	"/>
	<polygon fill="#EC2130" points="201.199,98.56 202.587,98.524 203.974,98.419 205.324,98.246 206.673,98.008 207.98,97.706 
		209.271,97.34 210.528,96.908 211.769,96.423 212.972,95.869 214.135,95.272 215.27,94.617 216.371,93.914 217.432,93.146 
		218.459,92.341 219.436,91.49 220.383,90.584 221.282,89.639 222.137,88.646 222.937,87.62 223.694,86.556 224.395,85.447 
		225.053,84.313 225.654,83.137 226.193,81.928 226.676,80.691 227.102,79.427 227.468,78.133 227.771,76.824 228.01,75.475 
		228.183,74.118 228.282,72.732 228.322,71.329 228.282,69.94 228.183,68.563 228.01,67.206 227.771,65.875 227.468,64.562 
		227.102,63.281 226.676,62.014 226.193,60.791 225.654,59.588 225.053,58.41 224.395,57.287 223.694,56.18 222.937,55.116 
		222.137,54.093 221.282,53.106 220.383,52.164 219.436,51.263 218.459,50.412 217.432,49.602 216.371,48.843 215.27,48.14 
		214.135,47.486 212.972,46.891 211.769,46.338 210.528,45.854 209.271,45.423 207.98,45.058 206.673,44.752 205.324,44.52 
		203.974,44.342 202.587,44.24 201.199,44.206 199.789,44.24 198.407,44.342 197.051,44.52 195.703,44.752 194.392,45.058 
		193.104,45.423 191.836,45.854 190.602,46.338 189.387,46.891 188.215,47.486 187.077,48.14 185.971,48.843 184.898,49.602 
		183.88,50.412 182.89,51.263 181.944,52.164 181.039,53.106 180.177,54.093 179.377,55.116 178.616,56.18 177.906,57.287 
		177.248,58.41 176.658,59.588 176.107,60.791 175.623,62.014 175.183,63.281 174.819,64.562 174.519,65.875 174.274,67.206 
		174.104,68.563 174.002,69.94 173.969,71.329 174.002,72.732 174.104,74.118 174.274,75.475 174.519,76.824 174.819,78.133 
		175.183,79.427 175.623,80.691 176.107,81.928 176.658,83.137 177.248,84.313 177.906,85.447 178.616,86.556 179.377,87.62 
		180.177,88.646 181.039,89.639 181.944,90.584 182.89,91.49 183.88,92.341 184.898,93.146 185.971,93.914 187.077,94.617 
		188.215,95.272 189.387,95.869 190.602,96.423 191.836,96.908 193.104,97.34 194.392,97.706 195.703,98.008 197.051,98.246 
		198.407,98.419 199.789,98.524 	"/>
	<polygon fill="#FCB430" points="216.192,54.628 230.632,54.628 230.632,53.148 217.443,53.148 	"/>
	<polygon fill="#FCB430" points="214.032,57.911 230.632,57.911 230.632,56.436 214.9,56.436 	"/>
	<polygon fill="#FCB430" points="212.415,61.18 230.632,61.18 230.632,59.707 213.057,59.707 	"/>
	<polygon fill="#FCB430" points="211.309,64.467 230.632,64.467 230.632,62.987 211.769,62.987 	"/>
	<polygon fill="#FCB430" points="211.953,80.324 230.677,80.324 230.677,78.848 211.49,78.848 	"/>
	<polygon fill="#FCB430" points="213.34,83.605 230.677,83.605 230.677,82.131 212.648,82.131 	"/>
	<polygon fill="#FCB430" points="215.275,86.879 230.677,86.879 230.677,85.403 214.345,85.403 	"/>
	<polygon fill="#FCB430" points="217.948,90.16 230.677,90.16 230.677,88.677 216.66,88.677 	"/>
	<polygon fill="#FCB430" points="210.662,67.738 230.632,67.738 230.632,66.259 210.939,66.259 	"/>
	<polygon fill="#FCB430" points="222.831,77.046 230.45,77.046 230.45,75.574 223.106,75.574 	"/>
	<polygon fill="#FCB430" points="223.438,73.778 230.45,73.778 230.45,72.296 223.711,72.296 	"/>
	<polygon fill="#FCB430" points="210.148,72.296 212.132,72.296 212.132,73.778 210.245,73.778 	"/>
	<polygon fill="#FFFFFF" points="206.457,70.506 206.326,70.495 206.207,70.478 206.082,70.464 205.963,70.442 205.85,70.422 
		205.73,70.408 205.611,70.387 205.48,70.367 205.361,70.353 205.208,70.337 205.044,70.332 204.873,70.317 204.678,70.317 
		204.468,70.332 204.232,70.353 203.966,70.367 203.778,70.393 203.608,70.422 203.449,70.478 203.313,70.536 203.183,70.6 
		203.063,70.672 202.976,70.763 202.893,70.844 202.836,70.945 202.791,71.047 202.773,71.157 202.773,71.268 202.802,71.39 
		202.836,71.506 202.91,71.628 203.007,71.745 203.183,71.917 203.409,72.053 203.665,72.175 203.932,72.275 204.232,72.366 
		204.527,72.468 204.834,72.575 205.123,72.694 205.404,72.852 205.662,73.046 205.893,73.272 206.082,73.561 206.229,73.905 
		206.32,74.321 206.354,74.815 206.32,75.394 206.258,75.824 206.147,76.198 205.997,76.55 205.815,76.849 205.611,77.113 
		205.361,77.343 205.111,77.547 204.828,77.717 204.527,77.858 204.232,77.977 203.92,78.069 203.6,78.142 203.29,78.194 
		202.983,78.224 202.683,78.244 202.394,78.25 202.002,78.25 201.633,78.244 201.315,78.244 201.015,78.235 200.736,78.224 
		200.492,78.203 200.271,78.188 200.062,78.16 199.868,78.142 199.687,78.107 199.517,78.078 199.363,78.032 199.204,77.994 
		199.057,77.941 198.915,77.883 198.759,77.828 199.17,75.804 199.25,75.824 199.352,75.851 199.485,75.887 199.633,75.926 
		199.8,75.959 199.984,75.995 200.188,76.042 200.407,76.079 200.635,76.117 200.878,76.155 201.122,76.181 201.378,76.211 
		201.645,76.219 201.911,76.225 202.175,76.225 202.444,76.219 202.706,76.164 202.921,76.089 203.08,75.987 203.214,75.862 
		203.302,75.734 203.381,75.585 203.421,75.44 203.458,75.3 203.483,75.033 203.398,74.806 203.236,74.621 203.012,74.467 
		202.74,74.324 202.416,74.19 202.056,74.063 201.701,73.916 201.338,73.752 200.986,73.561 200.663,73.319 200.373,73.034 
		200.146,72.691 199.979,72.275 199.896,71.782 199.908,71.193 199.95,70.838 200.016,70.495 200.106,70.184 200.215,69.891 
		200.359,69.618 200.526,69.38 200.723,69.147 200.946,68.95 201.213,68.772 201.503,68.621 201.843,68.49 202.206,68.388 
		202.618,68.307 203.063,68.241 203.557,68.205 204.099,68.197 204.442,68.197 204.754,68.205 205.038,68.213 205.296,68.224 
		205.521,68.241 205.73,68.257 205.918,68.277 206.082,68.299 206.229,68.313 206.369,68.343 206.485,68.362 206.593,68.377 
		206.689,68.396 206.769,68.402 206.852,68.423 206.928,68.435 	"/>
	<polygon fill="#FFFFFF" points="208.63,66.169 211.173,66.169 210.798,68.388 212.327,68.388 211.995,70.464 210.381,70.414 
		209.498,75.53 209.493,75.713 209.535,75.87 209.629,75.987 209.751,76.089 209.916,76.155 210.1,76.211 210.305,76.242 
		210.52,76.265 210.713,76.253 210.906,76.233 211.064,76.211 211.212,76.17 211.334,76.14 211.417,76.109 211.471,76.089 
		211.49,76.079 211.173,77.786 211.107,77.828 211.042,77.869 210.974,77.9 210.911,77.941 210.849,77.972 210.775,77.994 
		210.69,78.027 210.616,78.052 210.52,78.078 210.429,78.096 210.321,78.116 210.208,78.133 210.089,78.154 209.952,78.168 
		209.802,78.188 209.651,78.203 208.951,78.203 208.585,78.18 208.267,78.142 207.972,78.086 207.72,78.027 207.513,77.941 
		207.336,77.85 207.184,77.739 207.059,77.62 206.971,77.495 206.911,77.332 206.859,77.174 206.831,77.004 206.831,76.811 
		206.831,76.608 206.852,76.402 206.885,76.17 	"/>
	<polygon fill="#FFFFFF" points="214.345,73.916 214.322,74.071 214.316,74.234 214.333,74.412 214.373,74.583 214.43,74.764 
		214.504,74.923 214.608,75.097 214.717,75.257 214.847,75.408 214.989,75.544 215.128,75.688 215.292,75.795 215.46,75.896 
		215.645,75.981 215.829,76.042 216.013,76.079 216.252,76.117 216.479,76.143 216.717,76.17 216.955,76.189 217.193,76.198 
		217.443,76.198 217.682,76.189 217.926,76.17 218.175,76.14 218.425,76.089 218.675,76.034 218.93,75.951 219.18,75.851 
		219.452,75.743 219.702,75.591 219.969,75.44 219.603,77.692 219.452,77.77 219.311,77.839 219.163,77.895 219.032,77.95 
		218.891,77.994 218.74,78.047 218.596,78.078 218.437,78.107 218.274,78.133 218.09,78.154 217.895,78.168 217.688,78.188 
		217.449,78.194 217.205,78.194 216.918,78.203 216.614,78.203 216.169,78.194 215.707,78.154 215.253,78.086 214.793,77.977 
		214.345,77.839 213.91,77.664 213.493,77.437 213.113,77.171 212.756,76.858 212.443,76.483 212.177,76.062 211.961,75.574 
		211.803,75.033 211.7,74.423 211.672,73.744 211.718,72.99 211.757,72.694 211.811,72.357 211.888,72 211.989,71.614 
		212.126,71.218 212.285,70.823 212.5,70.422 212.756,70.04 213.045,69.673 213.405,69.324 213.812,69.011 214.266,68.734 
		214.799,68.504 215.395,68.343 216.059,68.232 216.802,68.197 217.156,68.205 217.531,68.241 217.911,68.307 218.289,68.396 
		218.652,68.534 219.007,68.696 219.339,68.92 219.646,69.178 219.912,69.489 220.15,69.855 220.329,70.278 220.457,70.763 
		220.53,71.315 220.542,71.936 220.479,72.63 220.335,73.4 220.289,73.961 218.045,72.161 218.062,71.928 218.051,71.704 
		218.036,71.506 217.996,71.318 217.937,71.152 217.875,70.991 217.778,70.853 217.688,70.728 217.579,70.617 217.46,70.524 
		217.324,70.442 217.183,70.367 217.037,70.312 216.887,70.278 216.733,70.248 216.575,70.231 216.394,70.239 216.229,70.265 
		216.072,70.306 215.917,70.359 215.764,70.434 215.627,70.515 215.485,70.617 215.369,70.728 215.253,70.853 215.14,70.991 
		215.043,71.138 214.952,71.293 214.875,71.459 214.811,71.643 214.756,71.826 214.717,72.017 	"/>
	<polygon fill="#FFFFFF" points="236.216,68.934 236.097,68.873 235.978,68.818 235.847,68.751 235.713,68.69 235.571,68.635 
		235.415,68.58 235.262,68.524 235.095,68.473 234.922,68.423 234.743,68.388 234.553,68.348 234.362,68.324 234.15,68.307 
		233.939,68.287 233.722,68.287 233.491,68.287 233.265,68.287 233.026,68.307 232.776,68.333 232.516,68.377 232.26,68.452 
		232.005,68.554 231.749,68.682 231.5,68.851 231.25,69.048 231.012,69.286 230.779,69.583 230.558,69.917 230.359,70.317 
		230.166,70.78 229.987,71.293 229.843,71.881 229.792,72.216 229.752,72.535 229.735,72.852 229.74,73.162 229.769,73.476 
		229.831,73.769 229.916,74.043 230.019,74.321 230.16,74.565 230.319,74.806 230.513,75.019 230.73,75.21 230.98,75.374 
		231.268,75.516 231.579,75.632 231.923,75.713 232.045,75.743 232.178,75.768 232.346,75.788 232.529,75.804 232.731,75.824 
		232.947,75.824 233.171,75.824 233.398,75.804 233.642,75.774 233.88,75.734 234.107,75.67 234.337,75.591 234.559,75.49 
		234.774,75.374 234.97,75.228 235.148,75.059 234.74,77.509 234.684,77.556 234.627,77.614 234.553,77.675 234.474,77.733 
		234.377,77.803 234.24,77.869 234.099,77.927 233.929,77.986 233.722,78.052 233.483,78.096 233.208,78.133 232.888,78.168 
		232.529,78.188 232.112,78.194 231.642,78.188 231.137,78.16 230.717,78.116 230.297,78.027 229.871,77.883 229.451,77.703 
		229.04,77.486 228.659,77.207 228.294,76.888 227.956,76.524 227.652,76.109 227.396,75.646 227.176,75.135 227.017,74.581 
		226.903,73.961 226.863,73.311 226.881,72.596 226.985,71.831 227.057,71.459 227.142,71.091 227.229,70.736 227.323,70.393 
		227.42,70.074 227.539,69.754 227.658,69.452 227.788,69.167 227.931,68.879 228.063,68.618 228.22,68.362 228.385,68.124 
		228.549,67.895 228.736,67.673 228.915,67.473 229.11,67.279 229.32,67.096 229.536,66.921 229.752,66.764 229.979,66.622 
		230.229,66.483 230.476,66.364 230.73,66.253 231,66.151 231.278,66.059 231.567,65.982 231.863,65.922 232.172,65.867 
		232.481,65.82 232.816,65.782 233.14,65.768 233.491,65.756 233.787,65.768 234.07,65.782 234.346,65.812 234.618,65.846 
		234.876,65.887 235.132,65.939 235.364,65.982 235.58,66.042 235.793,66.095 235.978,66.151 236.153,66.206 236.298,66.259 
		236.426,66.308 236.533,66.342 236.618,66.383 236.675,66.397 	"/>
	<polygon fill="#FFFFFF" points="258.787,78.203 256.245,78.203 256.435,77.192 256.435,77.099 256.284,77.282 256.129,77.445 
		255.97,77.59 255.805,77.717 255.641,77.839 255.481,77.941 255.312,78.027 255.136,78.107 254.962,78.168 254.789,78.212 
		254.613,78.264 254.432,78.291 254.25,78.313 254.071,78.334 253.893,78.343 253.705,78.343 253.229,78.311 252.792,78.203 
		252.389,78.052 252.02,77.839 251.69,77.57 251.396,77.262 251.135,76.919 250.916,76.539 250.737,76.123 250.59,75.693 
		250.493,75.243 250.414,74.775 250.386,74.31 250.396,73.833 250.442,73.362 250.521,72.898 250.664,72.357 250.828,71.843 
		251.016,71.376 251.248,70.933 251.486,70.524 251.762,70.154 252.048,69.827 252.349,69.524 252.673,69.261 253.008,69.031 
		253.356,68.828 253.705,68.67 254.071,68.545 254.443,68.462 254.807,68.402 255.181,68.388 255.453,68.396 255.709,68.423 
		255.947,68.473 256.168,68.534 256.372,68.609 256.56,68.69 256.744,68.792 256.912,68.895 257.054,69.001 257.189,69.12 
		257.309,69.239 257.417,69.358 257.513,69.48 257.593,69.6 257.666,69.708 257.723,69.815 258.364,66.215 260.858,66.215 	"/>
	<polygon fill="#FCB430" points="253.933,76.297 254.188,76.28 254.426,76.222 254.653,76.161 254.857,76.059 255.053,75.951 
		255.237,75.812 255.408,75.655 255.566,75.49 255.703,75.307 255.833,75.103 255.952,74.894 256.052,74.673 256.143,74.446 
		256.214,74.208 256.281,73.955 256.327,73.711 256.372,73.453 256.398,73.186 256.398,72.942 256.39,72.686 256.367,72.447 
		256.327,72.219 256.262,72 256.191,71.782 256.101,71.602 255.986,71.43 255.867,71.282 255.731,71.155 255.578,71.044 
		255.408,70.972 255.237,70.928 255.045,70.908 254.798,70.928 254.568,70.963 254.355,71.035 254.148,71.132 253.958,71.244 
		253.779,71.393 253.623,71.549 253.467,71.724 253.331,71.925 253.2,72.133 253.081,72.355 252.979,72.593 252.891,72.843 
		252.814,73.09 252.74,73.354 252.689,73.622 252.645,74.024 252.658,74.461 252.724,74.911 252.843,75.341 253.03,75.716 
		253.269,76.021 253.563,76.222 	"/>
	<polygon fill="#FFFFFF" points="198.336,76.17 197.967,78.203 195.663,78.203 195.723,77.828 195.766,77.495 195.805,77.232 
		195.842,77.099 195.717,77.241 195.566,77.39 195.394,77.526 195.198,77.656 194.977,77.786 194.75,77.895 194.514,78 
		194.265,78.096 194,78.18 193.733,78.244 193.467,78.299 193.194,78.334 192.928,78.354 192.661,78.363 192.406,78.334 
		192.156,78.299 191.836,78.212 191.543,78.122 191.288,78 191.056,77.869 190.856,77.717 190.669,77.556 190.524,77.381 
		190.396,77.201 190.286,77.004 190.192,76.805 190.125,76.605 190.063,76.402 190.028,76.189 190.006,75.981 189.982,75.774 
		189.982,75.574 190.011,75.216 190.063,74.88 190.161,74.56 190.28,74.246 190.423,73.952 190.59,73.688 190.78,73.43 
		191.001,73.203 191.234,72.99 191.486,72.796 191.75,72.622 192.031,72.479 192.318,72.349 192.627,72.247 192.939,72.166 
		193.257,72.111 193.274,72.111 193.322,72.1 193.382,72.089 193.49,72.084 193.598,72.064 193.729,72.053 193.858,72.039 
		194.018,72.017 194.174,72 194.33,71.983 194.497,71.97 194.642,71.953 194.783,71.945 194.926,71.936 195.056,71.928 
		195.149,71.928 195.365,71.928 195.578,71.936 195.788,71.945 195.986,71.945 196.157,71.953 196.282,71.962 196.373,71.97 
		196.401,71.97 196.418,71.906 196.475,71.745 196.521,71.549 196.531,71.376 196.509,71.171 196.418,70.991 196.311,70.823 
		196.162,70.689 195.986,70.57 195.794,70.489 195.572,70.434 195.34,70.414 195.079,70.408 194.807,70.393 194.517,70.393 
		194.228,70.408 193.924,70.422 193.632,70.448 193.34,70.478 193.056,70.515 192.78,70.55 192.514,70.6 192.275,70.641 
		192.054,70.689 191.85,70.745 191.686,70.797 191.561,70.864 191.458,70.919 192.108,68.711 192.31,68.621 192.514,68.554 
		192.735,68.49 192.953,68.443 193.172,68.396 193.416,68.362 193.648,68.324 193.896,68.307 194.159,68.287 194.421,68.277 
		194.698,68.266 194.977,68.266 195.269,68.266 195.572,68.266 195.896,68.277 196.214,68.287 196.475,68.307 196.747,68.348 
		197.036,68.418 197.326,68.496 197.609,68.609 197.888,68.734 198.163,68.895 198.421,69.065 198.648,69.269 198.847,69.489 
		199.031,69.733 199.17,70.01 199.264,70.306 199.313,70.617 199.313,70.966 199.264,71.329 	"/>
	<polygon fill="#EC2130" points="196.126,73.778 196.114,73.732 196.08,73.688 196.026,73.659 195.93,73.639 195.831,73.625 
		195.717,73.613 195.572,73.613 195.441,73.613 195.294,73.625 195.136,73.639 194.988,73.659 194.841,73.677 194.704,73.697 
		194.579,73.723 194.466,73.752 194.358,73.778 194.304,73.799 194.228,73.822 194.125,73.86 194.026,73.905 193.91,73.961 
		193.791,74.027 193.66,74.088 193.541,74.165 193.416,74.254 193.294,74.348 193.181,74.458 193.084,74.565 192.99,74.684 
		192.928,74.815 192.871,74.964 192.846,75.105 192.834,75.419 192.889,75.67 192.971,75.851 193.09,75.987 193.229,76.079 
		193.382,76.14 193.532,76.164 193.683,76.17 193.955,76.164 194.205,76.14 194.443,76.1 194.645,76.042 194.829,75.981 
		195.011,75.896 195.164,75.812 195.3,75.713 195.425,75.621 195.527,75.516 195.621,75.408 195.691,75.3 195.763,75.194 
		195.816,75.08 195.862,74.978 195.891,74.88 195.967,74.609 196.026,74.31 196.08,74.016 	"/>
	<polygon fill="#FFFFFF" points="243.837,76.17 243.457,78.203 241.158,78.203 241.176,77.828 241.187,77.5 241.187,77.251 
		241.198,77.146 241.079,77.282 240.948,77.418 240.781,77.547 240.603,77.675 240.406,77.794 240.188,77.9 239.955,78.011 
		239.729,78.107 239.484,78.18 239.229,78.25 238.968,78.299 238.71,78.334 238.443,78.354 238.185,78.363 237.935,78.334 
		237.691,78.299 237.362,78.212 237.066,78.122 236.812,78 236.573,77.869 236.369,77.717 236.198,77.556 236.048,77.381 
		235.921,77.201 235.807,77.004 235.733,76.805 235.653,76.605 235.614,76.402 235.571,76.189 235.543,75.981 235.523,75.774 
		235.523,75.574 235.543,75.216 235.603,74.88 235.682,74.56 235.804,74.246 235.94,73.952 236.113,73.688 236.307,73.43 
		236.52,73.203 236.758,72.99 237.002,72.796 237.269,72.622 237.555,72.479 237.842,72.349 238.145,72.247 238.443,72.166 
		238.758,72.111 238.774,72.111 238.817,72.1 238.889,72.089 238.974,72.084 239.09,72.064 239.229,72.053 239.359,72.039 
		239.507,72.017 239.663,72 239.827,71.983 239.983,71.97 240.14,71.953 240.29,71.945 240.415,71.936 240.543,71.928 
		240.642,71.928 240.863,71.928 241.079,71.936 241.3,71.945 241.493,71.945 241.669,71.953 241.822,71.962 241.901,71.97 
		241.941,71.97 241.956,71.906 241.979,71.745 242.01,71.549 242.032,71.376 241.989,71.171 241.919,70.991 241.8,70.823 
		241.663,70.689 241.493,70.57 241.3,70.489 241.102,70.434 240.883,70.414 240.625,70.408 240.347,70.393 240.063,70.393 
		239.773,70.408 239.467,70.422 239.181,70.448 238.889,70.478 238.599,70.515 238.321,70.55 238.06,70.6 237.821,70.641 
		237.598,70.689 237.398,70.745 237.231,70.797 237.106,70.864 237.002,70.919 237.646,68.711 237.85,68.621 238.06,68.554 
		238.27,68.49 238.491,68.443 238.718,68.396 238.945,68.362 239.187,68.324 239.436,68.307 239.688,68.287 239.955,68.277 
		240.222,68.266 240.503,68.266 240.789,68.266 241.079,68.266 241.394,68.277 241.703,68.287 241.961,68.307 242.236,68.348 
		242.521,68.418 242.815,68.496 243.099,68.609 243.383,68.734 243.658,68.895 243.919,69.065 244.146,69.269 244.354,69.489 
		244.543,69.733 244.677,70.01 244.779,70.306 244.841,70.617 244.841,70.966 244.793,71.329 	"/>
	<polygon fill="#FCB430" points="241.609,73.778 241.596,73.723 241.562,73.677 241.493,73.647 241.408,73.625 241.3,73.613 
		241.187,73.601 241.045,73.601 240.908,73.613 240.764,73.633 240.613,73.647 240.466,73.674 240.33,73.688 240.193,73.714 
		240.08,73.732 239.955,73.761 239.864,73.778 239.799,73.783 239.729,73.813 239.632,73.842 239.538,73.883 239.41,73.935 
		239.309,73.991 239.181,74.052 239.056,74.135 238.939,74.22 238.817,74.321 238.718,74.423 238.613,74.542 238.536,74.665 
		238.472,74.806 238.412,74.95 238.389,75.105 238.384,75.419 238.423,75.67 238.497,75.851 238.607,75.987 238.746,76.079 
		238.899,76.14 239.056,76.164 239.209,76.17 239.49,76.164 239.745,76.14 239.983,76.089 240.193,76.026 240.397,75.951 
		240.574,75.87 240.732,75.774 240.883,75.67 241.008,75.565 241.121,75.449 241.215,75.335 241.3,75.216 241.368,75.105 
		241.414,74.999 241.447,74.889 241.479,74.787 241.516,74.531 241.562,74.266 241.596,74.008 	"/>
	<polygon fill="#FFFFFF" points="260.501,76.949 260.516,76.736 260.589,76.492 260.714,76.275 260.875,76.079 261.071,75.926 
		261.293,75.812 261.525,75.743 261.78,75.713 262.042,75.743 262.274,75.812 262.496,75.926 262.688,76.079 262.848,76.275 
		262.973,76.492 263.049,76.736 263.066,76.949 262.791,76.949 262.785,76.786 262.729,76.583 262.632,76.402 262.519,76.242 
		262.371,76.117 262.197,76.026 261.99,75.959 261.78,75.94 261.57,75.959 261.369,76.026 261.19,76.117 261.049,76.242 
		260.93,76.402 260.839,76.583 260.782,76.786 260.765,76.949 	"/>
	<polygon fill="#FFFFFF" points="261.329,76.949 261.329,76.402 261.829,76.402 261.937,76.411 262.042,76.428 262.115,76.452 
		262.175,76.492 262.221,76.55 262.258,76.605 262.274,76.664 262.291,76.733 262.274,76.811 262.258,76.875 262.229,76.933 
		262.215,76.949 261.829,76.949 261.866,76.943 261.931,76.933 261.985,76.913 262.03,76.899 262.062,76.866 262.087,76.841 
		262.102,76.791 262.102,76.733 262.096,76.68 262.078,76.649 262.047,76.628 262.024,76.608 261.977,76.605 261.931,76.594 
		261.889,76.594 261.829,76.594 261.548,76.594 261.548,76.949 	"/>
	<polygon fill="#FFFFFF" points="260.501,76.949 260.489,77.004 260.516,77.273 260.589,77.521 260.714,77.739 260.875,77.922 
		261.071,78.078 261.293,78.194 261.525,78.268 261.78,78.299 262.042,78.268 262.274,78.194 262.496,78.078 262.688,77.922 
		262.848,77.739 262.973,77.521 263.049,77.273 263.08,77.004 263.066,76.949 262.791,76.949 262.799,77.004 262.785,77.227 
		262.729,77.431 262.632,77.601 262.519,77.756 262.371,77.883 262.197,77.986 261.99,78.052 261.78,78.069 261.57,78.052 
		261.369,77.986 261.19,77.883 261.049,77.756 260.93,77.601 260.839,77.431 260.782,77.227 260.765,77.004 260.765,76.949 	"/>
	<polygon fill="#FFFFFF" points="261.329,76.949 261.329,77.509 261.548,77.509 261.548,77.046 261.78,77.046 262.059,77.509 
		262.246,77.509 261.965,77.046 262.03,77.046 262.096,77.029 262.149,77.015 262.197,76.974 262.215,76.949 261.829,76.949 
		261.78,76.963 261.548,76.963 261.548,76.949 	"/>
	<path fill="none" stroke="#FFFFFF" stroke-width="0.0796" stroke-miterlimit="2.6131" d="M260.489,77.004L260.489,77.004
		l0.026-0.268l0.073-0.244l0.125-0.217l0.161-0.193l0.195-0.156l0.217-0.114l0.237-0.069l0.255-0.03l0.263,0.03l0.231,0.069
		l0.223,0.114l0.188,0.156l0.156,0.193l0.131,0.217l0.073,0.244l0.028,0.268l-0.028,0.27l-0.073,0.247l-0.131,0.218l-0.156,0.183
		l-0.188,0.156l-0.223,0.117l-0.231,0.069l-0.263,0.033l-0.255-0.033l-0.237-0.069l-0.217-0.117l-0.195-0.156l-0.161-0.183
		l-0.125-0.218l-0.073-0.247L260.489,77.004 M261.548,77.509h-0.219v-1.106h0.5l0.106,0.008l0.105,0.02l0.072,0.024l0.061,0.04
		l0.046,0.058l0.037,0.055l0.017,0.061l0.021,0.07l-0.021,0.079l-0.017,0.06l-0.029,0.06l-0.031,0.043l-0.048,0.041l-0.057,0.014
		l-0.063,0.014h-0.064l0.281,0.462h-0.188l-0.278-0.462h-0.231L261.548,77.509 M261.78,76.963L261.78,76.963l0.083-0.02l0.064-0.01
		l0.055-0.02l0.048-0.014l0.031-0.03l0.025-0.028l0.015-0.047v-0.058l-0.006-0.053l-0.018-0.034l-0.031-0.021l-0.022-0.02
		l-0.051-0.005l-0.046-0.009h-0.045h-0.061h-0.28v0.366h0.237 M261.78,78.069L261.78,78.069l0.21-0.017l0.205-0.066l0.177-0.103
		l0.146-0.127l0.113-0.152l0.097-0.173l0.058-0.205l0.014-0.223l-0.014-0.218l-0.058-0.203l-0.097-0.18l-0.113-0.16l-0.146-0.125
		l-0.177-0.091l-0.205-0.067l-0.21-0.02l-0.21,0.02l-0.2,0.067l-0.18,0.091l-0.142,0.125l-0.125,0.16l-0.085,0.18l-0.057,0.203
		l-0.021,0.218l0.021,0.223l0.057,0.205l0.085,0.173l0.125,0.152l0.142,0.127l0.18,0.103l0.2,0.066L261.78,78.069"/>
	<polygon fill="#FFFFFF" points="244.521,78.203 247.111,78.203 248.03,72.99 248.07,72.791 248.127,72.59 248.181,72.383 
		248.252,72.183 248.343,71.983 248.456,71.787 248.575,71.604 248.717,71.43 248.885,71.276 249.063,71.132 249.279,70.991 
		249.518,70.878 249.784,70.789 250.073,70.716 250.396,70.661 250.76,70.641 250.885,70.641 250.956,70.641 250.987,70.641 
		251.396,68.287 251.135,68.307 250.896,68.333 250.664,68.377 250.442,68.443 250.244,68.516 250.045,68.609 249.863,68.711 
		249.688,68.818 249.528,68.95 249.37,69.078 249.223,69.222 249.08,69.37 248.938,69.524 248.803,69.699 248.663,69.862 
		248.533,70.048 248.813,68.388 246.234,68.388 	"/>
	<polygon fill="#FFFFFF" points="220.246,78.203 222.831,78.203 222.874,78.203 223.754,72.99 223.793,72.791 223.836,72.596 
		223.884,72.404 223.949,72.221 224.021,72.039 224.117,71.861 224.225,71.701 224.355,71.543 224.497,71.401 224.661,71.268 
		224.86,71.157 225.087,71.055 225.337,70.975 225.626,70.899 225.938,70.853 226.302,70.823 226.318,70.823 226.358,70.838 
		226.403,70.844 226.455,70.844 226.5,70.853 226.534,70.864 226.563,70.87 226.568,70.87 226.58,70.838 226.611,70.728 
		226.643,70.562 226.682,70.359 226.756,70.12 226.818,69.862 226.903,69.608 226.985,69.35 227.057,69.178 227.147,69.001 
		227.244,68.828 227.332,68.67 227.414,68.534 227.479,68.423 227.521,68.362 227.539,68.333 227.533,68.333 227.499,68.324 
		227.453,68.313 227.386,68.307 227.323,68.307 227.255,68.299 227.184,68.287 227.13,68.287 226.835,68.307 226.58,68.333 
		226.344,68.377 226.12,68.435 225.916,68.504 225.717,68.595 225.547,68.69 225.38,68.798 225.224,68.92 225.076,69.056 
		224.945,69.194 224.804,69.35 224.661,69.507 224.537,69.685 224.395,69.862 224.259,70.048 224.594,68.388 221.96,68.388 	"/>
	<polygon fill="#FCB430" points="260.516,87.85 260.516,87.812 260.589,87.573 260.714,87.362 260.875,87.179 261.071,87.033 
		261.293,86.925 261.525,86.861 261.78,86.835 262.042,86.861 262.274,86.925 262.496,87.033 262.688,87.179 262.848,87.362 
		262.973,87.573 263.049,87.812 263.049,87.85 262.785,87.85 262.729,87.661 262.632,87.487 262.519,87.326 262.371,87.202 
		262.197,87.097 261.99,87.033 261.78,87.016 261.57,87.033 261.369,87.097 261.19,87.202 261.049,87.326 260.93,87.487 
		260.839,87.661 260.782,87.85 	"/>
	<polygon fill="#FCB430" points="261.329,87.85 261.329,87.526 261.829,87.526 261.937,87.526 262.042,87.548 262.115,87.565 
		262.175,87.603 262.221,87.646 262.258,87.704 262.274,87.765 262.291,87.85 262.102,87.85 262.102,87.803 262.096,87.759 
		262.078,87.725 262.047,87.704 262.024,87.684 261.977,87.675 261.931,87.672 261.889,87.672 261.829,87.672 261.548,87.672 
		261.548,87.85 	"/>
	<polygon fill="#FCB430" points="260.489,88.05 260.516,87.85 260.782,87.85 260.782,87.858 260.765,88.05 	"/>
	<polygon fill="#FCB430" points="261.329,88.05 261.329,87.85 261.548,87.85 261.548,88.036 261.78,88.036 261.866,88.012 
		261.931,88.006 261.985,87.983 262.03,87.969 262.062,87.942 262.087,87.914 262.102,87.867 262.102,87.85 262.291,87.85 
		262.274,87.914 262.258,87.969 262.229,88.012 262.197,88.05 	"/>
	<polygon fill="#FCB430" points="262.799,88.05 262.785,87.858 262.785,87.85 263.049,87.85 263.08,88.05 	"/>
	<polygon fill="#FCB430" points="260.489,88.05 260.489,88.083 260.516,88.344 260.589,88.593 260.714,88.814 260.875,89.006 
		261.071,89.164 261.293,89.27 261.525,89.345 261.78,89.372 262.042,89.345 262.274,89.27 262.496,89.164 262.688,89.006 
		262.848,88.814 262.973,88.593 263.049,88.344 263.08,88.083 263.08,88.05 262.799,88.05 262.799,88.083 262.785,88.297 
		262.729,88.5 262.632,88.677 262.519,88.832 262.371,88.962 262.197,89.062 261.99,89.123 261.78,89.143 261.57,89.123 
		261.369,89.062 261.19,88.962 261.049,88.832 260.93,88.677 260.839,88.5 260.782,88.297 260.765,88.083 260.765,88.05 	"/>
	<polygon fill="#FCB430" points="261.329,88.05 261.329,88.582 261.548,88.582 261.548,88.125 261.78,88.125 262.059,88.582 
		262.246,88.582 261.965,88.125 262.03,88.125 262.096,88.108 262.149,88.088 262.197,88.05 	"/>
	<rect x="213.31" y="72.172" fill="#FFFFFF" width="6.938" height="1.728"/>
	<polygon fill="#FFFFFF" points="179.05,78.203 176.556,78.203 178.633,66.169 182.969,66.169 183.383,73.311 186.379,66.169 
		190.913,66.169 188.785,78.203 186.288,78.203 187.866,69.214 187.764,69.214 184.035,78.203 181.218,78.203 181.198,77.828 
		181.142,76.832 181.059,75.408 180.963,73.778 180.872,72.139 180.789,70.695 180.725,69.655 180.707,69.214 180.676,69.214 
		180.625,69.214 180.568,69.214 	"/>
</g>
</svg>
